<svg width="48" height="62" viewBox="0 0 48 62" fill="none" xmlns="http://www.w3.org/2000/svg">
<path d="M22.4518 38.3084C20.5636 34.1162 24.3196 28.9968 29.0368 29.4263C29.698 28.9218 30.441 28.3629 31.2727 27.7357C32.2338 27.0063 33.0655 26.3724 33.7744 25.8407C34.5924 25.2203 35.424 24.8113 36.2625 24.6205C36.4056 24.5864 36.5488 24.5659 36.6919 24.5523C38.437 12.5958 30.1547 -1.03765 16.7939 1.31411C16.5963 1.37546 16.4054 1.43 16.2077 1.49135C5.90083 4.79746 1.91305 12.0777 0.556521 18.7581C-0.404637 23.4821 -0.0978843 28.322 1.29954 32.8755C4.96012 25.7725 10.3453 19.5557 17.871 16.2291C18.4913 15.786 19.1662 15.3634 19.8956 14.9475C20.8294 14.4158 21.8383 13.9387 22.9222 13.516C24.006 13.0934 25.1581 12.7048 26.3714 12.364C27.2644 12.1254 27.9938 12.1868 28.5596 12.5344C29.1254 12.8821 29.4867 13.3593 29.6435 13.9728C29.8002 14.5794 29.7253 15.1725 29.4049 15.7451C29.0845 16.3177 28.5051 16.7267 27.6598 16.9653C26.1601 17.347 24.7968 17.831 23.5629 18.4104C22.3291 18.9899 21.2316 19.6443 20.2705 20.3737C18.7367 21.5802 17.5779 22.9299 16.7803 24.416C15.9828 25.9088 15.5533 27.4699 15.4715 29.0991C15.3965 30.7283 15.6419 32.3779 16.2077 34.0275C16.7803 35.684 17.646 37.2587 18.8185 38.7652C20.0114 40.2989 21.3339 41.56 22.779 42.5484C24.2242 43.5369 25.7375 44.2254 27.3258 44.6207C28.9141 45.0161 30.5228 45.0297 32.1588 44.6821C32.1725 44.6821 32.1861 44.6821 32.1997 44.6753C28.0143 44.4776 23.9992 42.0031 22.4382 38.3153L22.4518 38.3084Z" fill="#0053CC"/>
<path d="M46.2149 13.8228C46.2149 13.8228 37.8712 -5.05954 16.7939 1.31409C30.1547 -1.03768 38.437 12.6026 36.6919 24.5523C37.3941 24.4841 38.1166 24.6341 38.8597 25.009C39.7527 25.4657 40.6865 26.3178 41.6682 27.5721C42.493 28.6287 43.1815 29.5149 43.7404 30.2238C44.2926 30.9327 44.7561 31.6008 45.131 32.2279C45.3628 32.6233 45.5741 33.0527 45.7718 33.4958C45.9286 33.1823 46.0786 32.8755 46.2217 32.5756C50.2231 24.191 46.2217 13.8296 46.2217 13.8296L46.2149 13.8228Z" fill="#F2C027"/>
<path d="M1.29272 32.8755C1.30636 32.9164 1.31999 32.9641 1.33362 33.005C4.14893 42.044 11.3201 50.4013 17.4074 57.5316C18.6004 58.929 19.8887 60.3537 21.6202 60.9877C25.0694 62.2624 28.8663 59.9243 31.1227 57.0544C33.3722 54.1846 34.7969 50.6808 37.4077 48.1177C29.5685 51.0966 19.8887 48.3836 14.8035 41.785C8.96153 34.1912 9.69092 22.5346 17.3461 16.604C17.5165 16.4745 17.6937 16.345 17.871 16.2223C10.3453 19.5557 4.9533 25.7725 1.29272 32.8755Z" fill="#0228B9"/>
<path d="M29.6433 43.9186L28.7367 43.4551C28.4709 43.3324 28.0618 43.1688 27.8301 42.9916C26.9575 42.3235 26.7667 42.8757 26.01 42.0645C25.6555 41.6828 24.783 41.451 23.74 40.6739C23.0243 40.1422 20.5566 37.4291 20.5566 34.0685C20.5566 32.6165 21.1156 31.4032 22.2404 30.4284C23.3651 29.4536 24.7489 28.9628 26.3986 28.9628C27.3461 28.9628 28.28 29.1605 29.2071 29.5558C29.357 29.6172 29.5002 29.6853 29.6433 29.7671C30.9726 30.4761 32.52 30.4624 33.8424 29.7467C33.9651 29.6785 34.0878 29.6172 34.2173 29.5626C35.0899 29.1673 36.0101 28.9696 36.9713 28.9696C38.6209 28.9696 40.0116 29.4604 41.1295 30.4352C42.2543 31.41 42.8132 32.6233 42.8132 34.0753C42.8132 35.9158 41.968 37.6745 40.2842 39.3583C38.6005 41.042 37.3667 42.0713 34.64 43.4619L32.8199 43.9255C32.5063 44.1845 31.4498 44.389 30.9999 44.389C30.5499 44.389 29.9501 44.1845 29.6365 43.9255L29.6433 43.9186Z" fill="#F24F7A"/>
</svg>
