<svg width="430" height="90" viewBox="0 0 430 90" fill="none" xmlns="http://www.w3.org/2000/svg">
<g clip-path="url(#clip0_161_1114)">
<path d="M92.0601 21.86C90.7101 21.24 89.2801 20.8 87.7601 20.52C86.2401 20.25 84.7301 20.11 83.2401 20.11C82.2801 20.11 81.4901 20.33 80.8901 20.78C80.2901 21.23 79.8901 21.78 79.7001 22.45C79.5101 23.12 79.5101 23.79 79.7001 24.45C79.8901 25.12 80.2901 25.67 80.8901 26.12C81.4901 26.57 82.2801 26.79 83.2401 26.79H97.6501C97.1201 25.84 96.4601 25 95.6701 24.27C94.6101 23.28 93.4001 22.48 92.0501 21.86H92.0601Z" fill="#0228B9"/>
<path d="M87.25 26.79H83.24C84.4 26.79 85.53 26.82 86.64 26.86C87.75 26.91 88.75 27.11 89.64 27.45C90.53 27.8 91.24 28.38 91.77 29.19C92.3 30.01 92.57 31.18 92.57 32.71V67.57C92.57 68.81 92.9 69.75 93.55 70.39C94.2 71.03 94.96 71.35 95.83 71.35C96.7 71.35 97.46 71.03 98.11 70.39C98.76 69.75 99.09 68.81 99.09 67.57V32.71C99.09 30.83 98.79 29.2 98.19 27.81C98.03 27.45 97.86 27.1 97.67 26.77H87.27L87.25 26.79Z" fill="#F2F2F7"/>
<path d="M108.4 20.11H83.24C84.73 20.11 86.24 20.25 87.76 20.52C89.28 20.79 90.71 21.24 92.06 21.86C93.41 22.48 94.61 23.28 95.68 24.27C96.46 25 97.12 25.84 97.66 26.79H108.41C109.66 26.79 110.59 26.46 111.19 25.79C111.79 25.12 112.09 24.34 112.09 23.45C112.09 22.56 111.79 21.78 111.19 21.11C110.59 20.44 109.66 20.11 108.41 20.11H108.4Z" fill="#F2F2F7"/>
<path d="M139.81 45.89C140.85 46.55 141.75 47.3 142.54 48.12C144.72 46.86 146.5 45.19 147.84 43.07C149.26 40.82 149.97 38.21 149.97 35.24C149.97 33.06 149.6 31.06 148.85 29.23C148.1 27.4 147.03 25.81 145.63 24.45C144.23 23.09 142.56 22.03 140.6 21.26C138.65 20.49 136.47 20.11 134.06 20.11H127.34C125.7 20.11 124.38 20.36 123.36 20.85C122.35 21.34 121.56 22.09 121.01 23.08C120.46 24.07 120.08 25.34 119.89 26.9C119.7 28.46 119.6 30.27 119.6 32.35V67.58C119.6 68.82 119.93 69.76 120.58 70.4C121.23 71.04 121.99 71.36 122.86 71.36C123.73 71.36 124.49 71.04 125.14 70.4C125.79 69.76 126.12 68.82 126.12 67.58V32.35C126.12 31.46 126.11 30.67 126.08 29.98C126.06 29.29 126.08 28.71 126.15 28.24C126.22 27.77 126.4 27.41 126.69 27.16C126.98 26.91 127.44 26.79 128.06 26.79H134.06C135.99 26.79 137.65 27.14 139.05 27.83C140.45 28.52 141.53 29.5 142.3 30.76C143.07 32.02 143.46 33.52 143.46 35.25C143.46 36.98 143.1 38.48 142.38 39.74C141.66 41 140.66 41.97 139.38 42.63C138.1 43.3 136.62 43.63 134.93 43.63H130.45C132.52 43.63 134.32 43.83 135.84 44.22C137.36 44.62 138.68 45.17 139.82 45.89H139.81Z" fill="#F2F2F7"/>
<path d="M131.97 50.3H134.21C137.1 50.3 139.74 49.66 142.13 48.37C142.28 48.29 142.4 48.19 142.55 48.11C141.76 47.29 140.86 46.54 139.82 45.88C138.69 45.16 137.36 44.61 135.84 44.21C134.32 43.81 132.53 43.62 130.45 43.62C129.48 43.62 128.7 43.84 128.1 44.29C127.5 44.73 127.1 45.29 126.91 45.96C126.72 46.63 126.72 47.3 126.91 47.96C127.1 48.63 127.5 49.18 128.1 49.63C128.7 50.08 129.48 50.3 130.45 50.3H131.97Z" fill="#F2F2F7"/>
<path d="M151.82 61.95C151.07 60.71 150.34 59.49 149.62 58.28C148.9 57.07 148.16 55.88 147.41 54.72C146.66 53.56 145.9 52.41 145.13 51.27C144.41 50.23 143.62 49.26 142.78 48.34C142.71 48.26 142.62 48.2 142.55 48.12C142.41 48.2 142.28 48.3 142.13 48.38C139.74 49.67 137.1 50.31 134.21 50.31H130.45C132.38 50.31 133.85 50.46 134.86 50.75C135.87 51.04 136.73 51.54 137.43 52.23C138.13 52.92 138.91 53.89 139.78 55.12C140.55 56.16 141.29 57.25 141.98 58.38C142.68 59.52 143.39 60.68 144.11 61.87C144.83 63.06 145.57 64.28 146.32 65.54C147.07 66.8 147.85 68.08 148.67 69.36C149.34 70.45 150.13 71.07 151.02 71.21C151.91 71.36 152.71 71.2 153.41 70.73C154.11 70.26 154.58 69.58 154.82 68.69C155.06 67.8 154.84 66.83 154.17 65.8C153.35 64.46 152.57 63.18 151.82 61.94V61.95Z" fill="#F2F2F7"/>
<path d="M172.46 51.04C170.68 51.04 169.15 51.33 167.87 51.89C167.67 51.98 167.48 52.09 167.28 52.19C167.43 52.61 167.59 53.02 167.79 53.41C168.49 54.75 169.53 55.8 170.9 56.56C172.27 57.33 174 57.71 176.07 57.71H185.04C186 57.71 186.79 57.49 187.39 57.04C187.99 56.6 188.39 56.04 188.58 55.37C188.77 54.7 188.77 54.03 188.58 53.37C188.39 52.7 187.99 52.15 187.39 51.7C186.79 51.25 186 51.03 185.04 51.03H172.46V51.04Z" fill="#F2F2F7"/>
<path d="M167.8 53.4199C167.6 53.0299 167.43 52.62 167.29 52.2C166.28 52.74 165.42 53.45 164.73 54.34C163.91 55.4 163.24 56.73 162.7 58.31C162.36 59.3 162.04 60.23 161.72 61.09C161.41 61.96 161.11 62.8199 160.82 63.6899C160.53 64.5599 160.22 65.48 159.88 66.47C159.45 67.66 159.43 68.66 159.84 69.47C160.25 70.29 160.86 70.8399 161.68 71.1399C162.5 71.4399 163.32 71.3999 164.14 71.0299C164.96 70.6599 165.56 69.88 165.95 68.69C166.29 67.7 166.61 66.77 166.93 65.91C167.24 65.04 167.54 64.18 167.83 63.31C168.12 62.45 168.43 61.5199 168.77 60.5299C169.06 59.8399 169.32 59.28 169.57 58.86C169.81 58.44 170.15 58.14 170.58 57.97C171.01 57.8 171.64 57.7099 172.46 57.7099H176.08C174.01 57.7099 172.28 57.33 170.91 56.56C169.54 55.79 168.5 54.74 167.8 53.41V53.4199Z" fill="#F2F2F7"/>
<path d="M199.68 63.39C199.32 62.33 198.97 61.3 198.63 60.31C198.29 59.32 197.98 58.46 197.69 57.71C197.11 56.08 196.48 54.24 195.81 52.18C195.13 50.13 194.42 47.97 193.68 45.69C192.93 43.42 192.17 41.1 191.4 38.75C190.63 36.4 189.86 34.09 189.09 31.81C188.32 29.54 187.57 27.38 186.85 25.36C186.08 23.23 185.1 21.64 183.92 20.58C182.74 19.52 181.5 18.99 180.2 18.99C178.9 18.99 177.68 19.52 176.55 20.58C175.42 21.64 174.49 23.21 173.77 25.29C173.24 26.97 172.71 28.59 172.18 30.15C171.65 31.71 171.13 33.22 170.62 34.67C170.11 36.13 169.61 37.55 169.1 38.94C168.59 40.32 168.12 41.68 167.69 43.02C167.02 45.05 166.69 46.95 166.71 48.73C166.73 50 166.92 51.14 167.28 52.18C167.47 52.08 167.66 51.97 167.87 51.88C169.15 51.31 170.68 51.03 172.46 51.03H176.08C175.21 51.03 174.55 50.9 174.09 50.62C173.63 50.35 173.35 49.95 173.26 49.43C173.16 48.91 173.17 48.29 173.3 47.58C173.42 46.86 173.63 46.08 173.91 45.24C174.34 43.9 174.8 42.55 175.28 41.16C175.76 39.78 176.24 38.39 176.73 37.01C177.21 35.63 177.69 34.24 178.18 32.86C178.66 31.48 179.12 30.12 179.55 28.78C179.79 28.04 179.97 27.53 180.09 27.26C180.21 26.99 180.33 26.95 180.45 27.15C180.57 27.35 180.75 27.82 180.99 28.56C181.81 30.84 182.69 33.36 183.63 36.13C184.57 38.9 185.51 41.72 186.45 44.59C187.39 47.46 188.3 50.22 189.2 52.86C190.09 55.51 190.9 57.87 191.62 59.94C191.91 60.73 192.22 61.62 192.56 62.61C192.9 63.6 193.25 64.63 193.61 65.69C193.97 66.75 194.32 67.75 194.66 68.69C195.05 69.88 195.65 70.65 196.47 71.03C197.29 71.4 198.11 71.44 198.93 71.14C199.75 70.84 200.36 70.29 200.77 69.47C201.18 68.65 201.17 67.65 200.73 66.47C200.39 65.48 200.04 64.46 199.68 63.39Z" fill="#F2F2F7"/>
<path d="M241.8 19.5199C240.98 19.2199 240.16 19.2699 239.34 19.6699C238.52 20.0699 237.92 20.8599 237.53 22.0399C237.14 23.2299 236.76 24.3899 236.37 25.5299C235.98 26.6699 235.62 27.7899 235.29 28.8999C234.95 30.0099 234.6 31.0999 234.24 32.1599C233.88 33.2199 233.5 34.2699 233.12 35.3099C232.69 36.4499 232.18 37.8299 231.6 39.4599C231.02 41.0899 230.42 42.8299 229.79 44.6899C229.16 46.5399 228.54 48.3599 227.91 50.1399C227.28 51.9199 226.73 53.5299 226.25 54.9599C226.06 55.5499 225.88 56.0799 225.71 56.5499C225.54 57.0199 225.4 57.4399 225.28 57.8099C225.16 58.1799 225.04 58.5399 224.92 58.8899C224.8 59.2399 224.68 59.5699 224.56 59.8899C224.44 60.2099 224.31 60.5499 224.16 60.8899C224.01 61.3299 223.89 61.7199 223.8 62.0399C223.7 62.3599 223.63 62.5999 223.58 62.7399C223.53 62.8899 223.48 62.9799 223.43 62.9999C223.38 63.0299 223.33 62.9499 223.29 62.7799C223.24 62.6099 223.16 62.3699 223.04 62.0799C222.92 61.7799 222.76 61.3899 222.57 60.8899C222.42 60.4899 222.28 60.1399 222.14 59.8099C222 59.4899 221.85 59.1599 221.71 58.8099C221.57 58.4599 221.43 58.0999 221.31 57.7299C221.19 57.3599 221.06 56.9599 220.91 56.5399C220.76 56.1199 220.6 55.6599 220.4 55.1699C219.87 53.6899 219.32 52.0799 218.74 50.3499C218.16 48.6199 217.58 46.8399 217.01 45.0099C216.43 43.1799 215.85 41.3899 215.27 39.6299C214.69 37.8699 214.14 36.2499 213.61 34.7699C213.18 33.4799 212.73 32.0899 212.27 30.5799C211.81 29.0699 211.33 27.5599 210.82 26.0599C210.31 24.5499 209.8 23.1299 209.27 21.7899C208.79 20.5999 208.12 19.8499 207.28 19.5299C206.44 19.2099 205.62 19.2199 204.82 19.5699C204.02 19.9199 203.45 20.5099 203.09 21.3499C202.73 22.1899 202.76 23.1799 203.2 24.3199C203.73 25.6099 204.24 26.9699 204.72 28.3999C205.2 29.8299 205.67 31.2799 206.13 32.7399C206.59 34.1999 207.03 35.6199 207.47 37.0099C208 38.5399 208.58 40.1999 209.2 41.9799C209.83 43.7599 210.47 45.5799 211.12 47.4299C211.77 49.2799 212.41 51.1099 213.04 52.9199C213.67 54.7299 214.22 56.4199 214.7 57.9999C215.04 58.9399 215.3 59.7199 215.5 60.3399C215.69 60.9599 215.9 61.5399 216.11 62.0799C216.32 62.6199 216.58 63.3399 216.87 64.2299C217.5 66.0099 218.16 67.4799 218.86 68.6399C219.56 69.7999 220.26 70.6499 220.96 71.1999C221.66 71.7399 222.38 71.9999 223.13 71.9799C223.88 71.9499 224.62 71.6499 225.37 71.0499C226.12 70.4499 226.85 69.5799 227.58 68.4199C228.31 67.2599 229.03 65.8399 229.75 64.1499C230.09 63.3099 230.35 62.6399 230.55 62.1499C230.74 61.6599 230.95 61.0999 231.16 60.4799C231.38 59.8599 231.68 59.0299 232.06 57.9899C232.64 56.4599 233.25 54.7599 233.9 52.9099C234.55 51.0599 235.2 49.1899 235.85 47.3099C236.5 45.4299 237.12 43.6499 237.69 41.9699C238.27 40.2899 238.77 38.8499 239.21 37.6699C239.6 36.5799 239.98 35.4899 240.37 34.4099C240.76 33.3199 241.13 32.2199 241.49 31.1099C241.85 29.9999 242.22 28.8599 242.61 27.6999C243 26.5399 243.38 25.3399 243.77 24.0999C244.16 22.9099 244.13 21.9199 243.7 21.1299C243.27 20.3399 242.64 19.7899 241.82 19.4999L241.8 19.5199Z" fill="#F2F2F7"/>
<path d="M252.9 43.89C253.2 44.42 253.55 44.92 253.95 45.37C254.67 46.19 255.5 46.82 256.44 47.26C257.38 47.71 258.4 47.93 259.51 47.93H274.98C275.95 47.93 276.72 47.71 277.29 47.26C277.86 46.81 278.25 46.26 278.45 45.59C278.64 44.92 278.64 44.25 278.45 43.59C278.26 42.92 277.87 42.37 277.29 41.92C276.71 41.47 275.94 41.25 274.98 41.25H259.58C257.75 41.25 256.24 41.54 255.06 42.1C254.15 42.54 253.43 43.14 252.89 43.88L252.9 43.89Z" fill="#F2F2F7"/>
<path d="M258.14 33.61V30.2C258.14 28.82 258.24 27.9 258.43 27.46C258.62 27.01 259.39 26.79 260.74 26.79H276.43C277.63 26.79 278.55 26.46 279.18 25.79C279.81 25.12 280.12 24.34 280.12 23.45C280.12 22.56 279.81 21.78 279.18 21.11C278.55 20.44 277.64 20.11 276.43 20.11H260.74C258.52 20.11 256.75 20.48 255.43 21.22C254.1 21.96 253.14 23.09 252.54 24.59C251.94 26.1 251.64 27.96 251.64 30.19V38.94C251.64 40.23 251.84 41.41 252.25 42.5C252.43 42.99 252.65 43.44 252.9 43.88C253.44 43.13 254.16 42.53 255.07 42.1C256.25 41.53 257.76 41.25 259.59 41.25H259.52C259.28 41.25 259.07 41.18 258.91 41.03C258.74 40.88 258.6 40.7 258.48 40.47C258.36 40.25 258.28 40 258.23 39.73C258.18 39.46 258.16 39.2 258.16 38.95V33.61H258.14Z" fill="#F2F2F7"/>
<path d="M253.95 45.37C253.55 44.92 253.2 44.42 252.9 43.89C252.74 44.11 252.59 44.34 252.47 44.59C251.91 45.68 251.64 46.99 251.64 48.52V61.5C251.64 63.68 251.99 65.43 252.69 66.77C253.39 68.11 254.4 69.07 255.73 69.66C257.05 70.25 258.68 70.55 260.61 70.55H276.45C277.65 70.55 278.56 70.22 279.16 69.55C279.76 68.88 280.06 68.1 280.06 67.21C280.06 66.32 279.76 65.54 279.16 64.87C278.56 64.2 277.65 63.87 276.45 63.87H260.61C259.55 63.87 258.88 63.77 258.59 63.57C258.3 63.37 258.16 62.68 258.16 61.49V48.51C258.16 48.11 258.28 47.92 258.52 47.92H259.53C258.42 47.92 257.4 47.7 256.46 47.25C255.52 46.8 254.69 46.17 253.97 45.36L253.95 45.37Z" fill="#F2F2F7"/>
<path d="M313.53 63.88H300.01C298.85 63.88 297.98 63.83 297.41 63.73C296.83 63.63 296.45 63.32 296.25 62.8C296.06 62.28 295.96 61.45 295.96 60.31V23.08C295.96 21.84 295.63 20.92 294.98 20.3C294.33 19.68 293.57 19.37 292.7 19.37C291.83 19.37 291.07 19.68 290.42 20.3C289.77 20.92 289.44 21.85 289.44 23.08V57.05C289.44 59.87 289.51 62.17 289.66 63.95C289.81 65.73 290.17 67.09 290.74 68.03C291.32 68.97 292.23 69.62 293.49 70C294.74 70.37 296.45 70.56 298.62 70.56H313.52C314.72 70.56 315.63 70.23 316.23 69.56C316.83 68.89 317.13 68.11 317.13 67.22C317.13 66.33 316.83 65.55 316.23 64.88C315.63 64.21 314.72 63.88 313.52 63.88H313.53Z" fill="#F2F2F7"/>
<path d="M346.65 63.88H333.13C331.97 63.88 331.1 63.83 330.53 63.73C329.95 63.63 329.57 63.32 329.37 62.8C329.18 62.28 329.08 61.45 329.08 60.31V23.08C329.08 21.84 328.75 20.92 328.1 20.3C327.45 19.68 326.69 19.37 325.82 19.37C324.95 19.37 324.19 19.68 323.54 20.3C322.89 20.92 322.56 21.85 322.56 23.08V57.05C322.56 59.87 322.63 62.17 322.78 63.95C322.93 65.73 323.29 67.09 323.86 68.03C324.44 68.97 325.35 69.62 326.61 70C327.86 70.37 329.57 70.56 331.74 70.56H346.64C347.84 70.56 348.75 70.23 349.35 69.56C349.95 68.89 350.25 68.11 350.25 67.22C350.25 66.33 349.95 65.55 349.35 64.88C348.75 64.21 347.84 63.88 346.64 63.88H346.65Z" fill="#F2F2F7"/>
<path d="M357.67 43.89C357.97 44.42 358.32 44.92 358.72 45.37C359.44 46.19 360.27 46.82 361.21 47.26C362.15 47.71 363.17 47.93 364.28 47.93H379.75C380.71 47.93 381.49 47.71 382.06 47.26C382.63 46.81 383.02 46.26 383.22 45.59C383.41 44.92 383.41 44.25 383.22 43.59C383.03 42.92 382.64 42.37 382.06 41.92C381.48 41.47 380.71 41.25 379.75 41.25H364.35C362.52 41.25 361.01 41.54 359.83 42.1C358.92 42.54 358.2 43.14 357.66 43.88L357.67 43.89Z" fill="#F2F2F7"/>
<path d="M362.91 33.61V30.2C362.91 28.82 363.01 27.9 363.2 27.46C363.39 27.01 364.16 26.79 365.51 26.79H381.2C382.4 26.79 383.32 26.46 383.95 25.79C384.58 25.12 384.89 24.34 384.89 23.45C384.89 22.56 384.58 21.78 383.95 21.11C383.32 20.44 382.41 20.11 381.2 20.11H365.51C363.29 20.11 361.52 20.48 360.2 21.22C358.87 21.96 357.91 23.09 357.31 24.59C356.71 26.1 356.41 27.96 356.41 30.19V38.94C356.41 40.23 356.61 41.41 357.02 42.5C357.2 42.99 357.42 43.44 357.67 43.88C358.21 43.13 358.93 42.53 359.84 42.1C361.02 41.53 362.53 41.25 364.36 41.25H364.29C364.05 41.25 363.84 41.18 363.68 41.03C363.51 40.88 363.37 40.7 363.25 40.47C363.13 40.25 363.04 40 363 39.73C362.95 39.46 362.93 39.2 362.93 38.95V33.61H362.91Z" fill="#F2F2F7"/>
<path d="M358.72 45.37C358.32 44.92 357.97 44.42 357.67 43.89C357.51 44.11 357.36 44.34 357.24 44.59C356.68 45.68 356.41 46.99 356.41 48.52V61.5C356.41 63.68 356.76 65.43 357.46 66.77C358.16 68.11 359.17 69.07 360.5 69.66C361.82 70.25 363.45 70.55 365.38 70.55H381.21C382.41 70.55 383.32 70.22 383.92 69.55C384.52 68.88 384.82 68.1 384.82 67.21C384.82 66.32 384.52 65.54 383.92 64.87C383.32 64.2 382.41 63.87 381.21 63.87H365.38C364.32 63.87 363.64 63.77 363.35 63.57C363.06 63.37 362.92 62.68 362.92 61.49V48.51C362.92 48.11 363.04 47.92 363.28 47.92H364.29C363.18 47.92 362.16 47.7 361.22 47.25C360.28 46.8 359.45 46.17 358.73 45.36L358.72 45.37Z" fill="#F2F2F7"/>
<path d="M406.59 50.3H408.83C411.72 50.3 414.36 49.66 416.75 48.37C416.9 48.29 417.02 48.19 417.17 48.11C416.38 47.29 415.48 46.54 414.44 45.88C413.31 45.16 411.98 44.61 410.46 44.21C408.94 43.81 407.15 43.62 405.07 43.62C404.11 43.62 403.32 43.84 402.72 44.29C402.12 44.73 401.72 45.29 401.53 45.96C401.34 46.63 401.34 47.3 401.53 47.96C401.72 48.63 402.12 49.18 402.72 49.63C403.32 50.08 404.11 50.3 405.07 50.3H406.59Z" fill="#F2F2F7"/>
<path d="M428.78 65.8C427.96 64.46 427.18 63.18 426.43 61.94C425.68 60.7 424.95 59.48 424.22 58.27C423.5 57.06 422.76 55.87 422.02 54.71C421.27 53.55 420.51 52.4 419.74 51.26C419.02 50.22 418.23 49.25 417.39 48.33C417.32 48.25 417.23 48.19 417.16 48.11C417.02 48.19 416.89 48.29 416.74 48.37C414.35 49.66 411.71 50.3 408.82 50.3H405.06C406.99 50.3 408.46 50.45 409.47 50.74C410.48 51.03 411.34 51.53 412.04 52.22C412.74 52.91 413.52 53.88 414.39 55.11C415.16 56.15 415.9 57.24 416.6 58.37C417.3 59.51 418.01 60.67 418.73 61.86C419.45 63.05 420.19 64.27 420.94 65.53C421.69 66.79 422.47 68.07 423.29 69.35C423.96 70.44 424.75 71.06 425.64 71.2C426.53 71.35 427.33 71.19 428.03 70.72C428.73 70.25 429.2 69.57 429.44 68.68C429.68 67.79 429.46 66.82 428.79 65.79L428.78 65.8Z" fill="#F2F2F7"/>
<path d="M414.43 45.89C415.47 46.55 416.37 47.3 417.16 48.12C419.34 46.86 421.12 45.19 422.46 43.07C423.88 40.82 424.59 38.21 424.59 35.24C424.59 33.06 424.22 31.06 423.47 29.23C422.72 27.4 421.65 25.81 420.25 24.45C418.85 23.09 417.18 22.03 415.22 21.26C413.27 20.49 411.09 20.11 408.68 20.11H401.96C400.32 20.11 399 20.36 397.98 20.85C396.97 21.34 396.18 22.09 395.63 23.08C395.07 24.07 394.7 25.34 394.51 26.9C394.32 28.46 394.22 30.27 394.22 32.35V67.58C394.22 68.82 394.55 69.76 395.2 70.4C395.85 71.04 396.61 71.36 397.48 71.36C398.35 71.36 399.11 71.04 399.76 70.4C400.41 69.76 400.74 68.82 400.74 67.58V32.35C400.74 31.46 400.73 30.67 400.7 29.98C400.68 29.29 400.7 28.71 400.77 28.24C400.84 27.77 401.02 27.41 401.31 27.16C401.6 26.91 402.06 26.79 402.68 26.79H408.68C410.61 26.79 412.27 27.14 413.67 27.83C415.07 28.52 416.15 29.5 416.92 30.76C417.69 32.02 418.08 33.52 418.08 35.25C418.08 36.98 417.72 38.48 417 39.74C416.28 41 415.28 41.97 414 42.63C412.72 43.3 411.24 43.63 409.55 43.63H405.07C407.14 43.63 408.94 43.83 410.46 44.22C411.98 44.62 413.3 45.17 414.44 45.89H414.43Z" fill="#F2F2F7"/>
<path d="M32.9401 56.2C30.1701 50.05 35.6801 42.54 42.6001 43.17C43.5701 42.43 44.6601 41.61 45.8801 40.69C47.2901 39.62 48.5101 38.69 49.5501 37.91C50.7501 37 51.9701 36.4 53.2001 36.12C53.4101 36.07 53.6201 36.04 53.8301 36.02C56.3901 18.48 44.2401 -1.51999 24.6401 1.93001C24.3501 2.02001 24.0701 2.10001 23.7801 2.19001C8.66007 7.04001 2.81007 17.72 0.820068 27.52C-0.589932 34.45 -0.139932 41.55 1.91007 48.23C7.28007 37.81 15.1801 28.69 26.2201 23.81C27.1301 23.16 28.1201 22.54 29.1901 21.93C30.5601 21.15 32.0401 20.45 33.6301 19.83C35.2201 19.21 36.9101 18.64 38.6901 18.14C40.0001 17.79 41.0701 17.88 41.9001 18.39C42.7301 18.9 43.2601 19.6 43.4901 20.5C43.7201 21.39 43.6101 22.26 43.1401 23.1C42.6701 23.94 41.8201 24.54 40.5801 24.89C38.3801 25.45 36.3801 26.16 34.5701 27.01C32.7601 27.86 31.1501 28.82 29.7401 29.89C27.4901 31.66 25.7901 33.64 24.6201 35.82C23.4501 38.01 22.8201 40.3 22.7001 42.69C22.5901 45.08 22.9501 47.5 23.7801 49.92C24.6201 52.35 25.8901 54.66 27.6101 56.87C29.3601 59.12 31.3001 60.97 33.4201 62.42C35.5401 63.87 37.7601 64.88 40.0901 65.46C42.4201 66.04 44.7801 66.06 47.1801 65.55C47.2001 65.55 47.2201 65.55 47.2401 65.54C41.1001 65.25 35.2101 61.62 32.9201 56.21L32.9401 56.2Z" fill="#0053CC"/>
<path d="M60.9601 52.67C60.5601 51.48 59.9001 50.29 58.9701 49.1C58.0501 47.91 57.0601 46.65 56.0101 45.3C55.4001 44.52 54.9101 44 54.5401 43.73C54.1701 43.46 53.8301 43.44 53.5401 43.66C52.0101 44.82 50.6201 45.88 49.3701 46.82C48.1301 47.76 47.1501 48.5 46.4501 49.04C45.4101 49.83 44.4101 50.15 43.4401 50C42.4701 49.86 41.7001 49.42 41.1301 48.68C40.5601 47.94 40.3201 47.1 40.4301 46.13C40.5401 45.17 41.1101 44.3 42.1501 43.51C42.3001 43.4 42.4501 43.28 42.6001 43.17C30.1601 41.8 30.1701 50.05 32.9401 56.2C35.2301 61.61 41.1201 65.24 47.2601 65.53C49.6401 65.01 51.9401 63.9 54.1601 62.22C56.1901 60.68 57.7401 59.3 58.7901 58.07C59.8501 56.85 60.5301 55.77 60.8401 54.86C61.1501 53.94 61.1901 53.21 60.9601 52.67Z" fill="#F24F7A"/>
<path d="M67.7999 20.2799C67.7999 20.2799 55.5599 -7.42005 24.6399 1.92995C44.2399 -1.52005 56.3899 18.4899 53.8299 36.0199C54.8599 35.9199 55.9199 36.1399 57.0099 36.6899C58.3199 37.3599 59.6899 38.6099 61.1299 40.4499C62.3399 41.9999 63.3499 43.2999 64.1699 44.3399C64.9799 45.3799 65.6599 46.3599 66.2099 47.2799C66.5499 47.8599 66.8599 48.4899 67.1499 49.1399C67.3799 48.6799 67.5999 48.2299 67.8099 47.7899C73.6799 35.4899 67.8099 20.2899 67.8099 20.2899L67.7999 20.2799Z" fill="#F2C027"/>
<path d="M1.8999 48.23C1.9199 48.29 1.9399 48.36 1.9599 48.42C6.0899 61.68 16.6099 73.9401 25.5399 84.4001C27.2899 86.4501 29.1799 88.54 31.7199 89.47C36.7799 91.34 42.3499 87.91 45.6599 83.7C48.9599 79.49 51.0499 74.35 54.8799 70.59C43.3799 74.96 29.1799 70.98 21.7199 61.3C13.1499 50.16 14.2199 33.0601 25.4499 24.3601C25.6999 24.1701 25.9599 23.98 26.2199 23.8C15.1799 28.69 7.2699 37.81 1.8999 48.23Z" fill="#0228B9"/>
<path d="M43.4899 64.43L42.1599 63.75C41.7699 63.57 41.1699 63.33 40.8299 63.07C39.5499 62.09 39.2699 62.9 38.1599 61.71C37.6399 61.15 36.3599 60.81 34.8299 59.67C33.7799 58.89 30.1599 54.91 30.1599 49.98C30.1599 47.85 30.9799 46.07 32.6299 44.64C34.2799 43.21 36.3099 42.49 38.7299 42.49C40.1199 42.49 41.4899 42.78 42.8499 43.36C43.0699 43.45 43.2799 43.55 43.4899 43.67C45.4399 44.71 47.7099 44.69 49.6499 43.64C49.8299 43.54 50.0099 43.45 50.1999 43.37C51.4799 42.79 52.8299 42.5 54.2399 42.5C56.6599 42.5 58.6999 43.22 60.3399 44.65C61.9899 46.08 62.8099 47.86 62.8099 49.99C62.8099 52.69 61.5699 55.27 59.0999 57.74C56.6299 60.21 54.8199 61.72 50.8199 63.76L48.1499 64.44C47.6899 64.82 46.1399 65.12 45.4799 65.12C44.8199 65.12 43.9399 64.82 43.4799 64.44L43.4899 64.43Z" fill="#F24F7A"/>
</g>
<defs>
<clipPath id="clip0_161_1114">
<rect width="429.53" height="90" fill="white"/>
</clipPath>
</defs>
</svg>
