<svg width="875" height="570" viewBox="0 0 875 570" fill="none" xmlns="http://www.w3.org/2000/svg">
<g clip-path="url(#clip0_192_1298)">
<rect width="875" height="570" rx="32" fill="white"/>
<path d="M613.971 46.8057C628.416 34.6133 661.95 30.2685 689.728 29.2558C709.375 28.5395 739.742 27.6096 735.493 46.8057C734.429 57.481 721.308 84.5057 710.369 105.188C704.582 116.129 695.377 125.285 689.59 136.227C686.915 141.284 684.982 146.363 683.991 149.618C681.277 156.883 677.236 163.557 672.907 169.292C662.479 183.105 643.887 187.835 631.514 199.935C627.338 204.02 623.857 208.805 620.99 213.834C609.362 234.229 617.993 269.678 595.454 276.246C587.584 277.64 585.231 289.993 585.038 295.995C587.815 319.23 551.089 330.46 532.379 333.17C510.158 335.958 502.288 368.796 501.13 384.867C499.741 414.607 459.273 445.664 439.212 457.475C419.306 468.627 406.228 505.492 402.177 522.531C395.233 549.948 374.594 564.934 365.142 569H0V281.474C39.8127 242.904 61.9179 235.206 131.937 240.813C172.213 242.672 216.616 206.349 233.784 187.955C272.579 142.928 324.486 156.89 353.859 174.044C360.452 177.895 369.053 177.098 374.083 171.354C379.284 165.412 383.224 158.32 388.912 152.842C405.426 136.937 438.951 132.357 455.994 132.192C467.124 130.688 477.198 127.14 485.462 123.166C499.917 116.214 509.209 102.506 519.578 90.2676C542.38 63.3547 568.46 56.7814 580.408 57.2612C593.371 57.7259 608.185 50.4845 613.971 46.8057Z" fill="#598EBC" stroke="#598EBC"/>
<path d="M0 570V409.414C30.2096 383.783 34.4093 330.227 62.4651 302.255C82.0638 282.715 106.683 266.723 122.437 271.519C140.689 277.075 176.218 257.524 205.205 237.597C226.798 222.753 246.202 204.285 269.027 191.417C279.786 185.352 294.441 183.858 328.433 194.717C367.246 207.115 405.832 163.119 445.314 153.05C449.812 151.903 454.23 150.857 458.413 149.915C467.64 147.839 476.052 144.455 483.451 140.439C507.701 127.28 526.139 104.742 549.917 90.7486C608.016 56.5568 684.652 25.4784 691.101 78.3497C700.966 159.225 626.691 168.694 612.185 203.444L611.588 204.873C604.985 220.693 597.697 238.156 591.175 250.185C587.553 256.866 578.115 255.788 571.081 258.665C566.042 260.726 561.423 267.699 559.96 284.319C557.175 315.971 537.136 313.411 527.465 308.174C511.991 293.823 482.204 276.988 486.846 324.466C491.488 371.944 416.44 417.947 378.336 435.014C357.446 444.13 314.854 471.088 311.605 505.998C308.355 540.908 260.348 559.333 236.75 564.182L0 570Z" fill="#076A8F"/>
<mask id="mask0_192_1298" style="mask-type:alpha" maskUnits="userSpaceOnUse" x="-1" y="27" width="736" height="543">
<path d="M612.505 46.2789C626.907 34.0857 660.331 29.7362 688.034 28.7198C707.665 27.9995 737.969 27.0963 733.735 46.2789C732.674 56.961 719.584 84.0035 708.671 104.699C702.898 115.646 693.71 124.815 687.938 135.762C685.272 140.821 683.345 145.9 682.357 149.155C679.659 156.398 675.648 163.054 671.346 168.778C660.928 182.643 642.291 187.405 629.934 199.574C625.795 203.649 622.342 208.418 619.497 213.427C607.903 233.835 616.56 269.276 594.031 275.861C586.18 277.256 583.833 289.617 583.64 295.623C586.411 318.872 549.772 330.109 531.107 332.821C508.939 335.611 501.088 368.469 499.933 384.55C498.548 414.308 458.176 445.384 438.163 457.202C418.304 468.362 405.258 505.25 401.216 522.299C394.289 549.733 373.699 564.728 364.27 568.797H0V281.092C39.7175 242.499 61.77 234.796 131.622 240.407C171.801 242.267 216.099 205.921 233.225 187.516C271.914 142.477 323.674 156.421 352.982 173.578C359.574 177.437 368.183 176.639 373.206 170.884C378.384 164.952 382.302 157.876 387.961 152.402C404.429 136.47 437.896 131.883 454.904 131.718C466 130.215 476.043 126.668 484.284 122.695C498.723 115.733 507.988 102.019 518.332 89.7732C541.08 62.839 567.101 56.2608 579.022 56.7409C591.953 57.2058 606.732 49.9599 612.505 46.2789Z" fill="#179DC1" stroke="#09AAD5"/>
</mask>
<g mask="url(#mask0_192_1298)">
<path d="M3.46387 570V409.583C33.5687 383.936 37.6583 330.519 65.6076 302.538C85.1057 283.018 109.599 267.044 125.272 271.834C143.393 277.372 178.633 257.933 207.439 238.069C229.048 223.169 248.385 204.509 271.3 191.71C281.987 185.741 296.593 184.33 330.21 195.113C368.826 207.499 407.174 163.561 446.459 153.498C450.945 152.349 455.351 151.302 459.523 150.359C468.654 148.295 476.983 144.939 484.316 140.956C508.555 127.789 526.94 105.201 550.692 91.1741C608.477 57.0499 684.605 26.0942 691.016 78.8684C700.83 159.658 626.937 169.118 612.505 203.831L611.911 205.259C605.356 221.029 598.121 238.434 591.644 250.448C588.027 257.157 578.518 256.056 571.504 259.039C566.534 261.153 561.993 268.138 560.549 284.621C557.778 316.239 537.842 313.682 528.22 308.451C512.826 294.114 483.192 277.297 487.81 324.725C492.428 372.153 417.766 418.108 379.857 435.157C359.074 444.263 316.701 471.193 313.469 506.066C310.236 540.939 262.475 559.345 238.998 564.188L3.46387 570Z" fill="#076A8F"/>
<path d="M422.577 521.338C413.34 486.465 454.135 456.435 475.687 445.779C483.577 442.486 500.626 437.874 505.706 445.779C510.787 453.684 508.016 482.977 496.47 495.764C484.924 508.551 481.061 507.389 475.687 526.569C472.428 538.204 467.22 547.493 462.987 550.399C453.366 555.242 431.813 556.211 422.577 521.338Z" fill="#598EBC" stroke="#598EBC"/>
<g style="mix-blend-mode:multiply" opacity="0.51">
<path d="M135.663 238.693C102.859 251.18 100.986 220.128 102.187 205.625C101.9 153.53 63.3585 139.722 44.6442 132.59C56.0717 139.628 67.9475 153.805 54.3356 191.312C34.3404 246.408 56.714 256.855 52.6407 256.216C49.4227 255.711 37.612 281.3 41.4622 305.846C43.5016 318.848 48.1632 331.72 49.1751 344.84C50.3193 359.675 50.9497 371.263 39.5139 381.542C75.2024 360.973 87.3765 328.679 96.3672 299.941L96.5058 299.498C101.317 284.114 107.27 265.08 121.904 271.684C124.255 272.745 126.92 274.068 129.942 275.682C154.992 289.054 269.834 342.29 387.983 353.918C423.941 357.457 514.699 361.403 579.114 338.762C631.222 320.446 648.267 286.994 651.162 268.131C652.225 261.202 650.67 253.729 645.617 248.861C634.872 238.51 607.995 222.272 561.103 205.706C497.017 183.065 365.252 177.204 320.105 185.866C256.899 197.994 182.968 220.575 135.663 238.693Z" fill="#083F73"/>
</g>
</g>
<path d="M421.356 521.324C412.003 486.276 453.313 456.096 475.137 445.386C483.126 442.076 500.39 437.442 505.534 445.386C510.679 453.331 507.873 482.771 496.181 495.622C484.49 508.473 480.578 507.305 475.137 526.581C471.836 538.275 466.563 547.61 462.276 550.531C452.533 555.398 430.709 556.372 421.356 521.324Z" fill="#598EBC" stroke="#598EBC"/>
<path d="M60.4447 191.884C61.3259 163.837 98.5362 161.898 120.909 165.384L145.103 170.965C180.389 177.065 207.129 156.3 221.507 143.238C241.177 129.054 241.181 146.171 232.72 165.875C219.386 196.924 176.663 216.483 156.874 223.261C124.582 232.271 100.753 230.227 85.1857 225.173C70.8023 220.505 59.9698 206.999 60.4447 191.884Z" fill="#598EBC" stroke="#598EBC"/>
<path d="M326 198.621L292.211 204C281.026 201.61 272.793 187.864 270.074 181.291C263.55 173.641 268.909 171.331 272.404 171.131C298.037 169.219 318.815 188.661 326 198.621Z" fill="#083F73"/>
<path d="M339.309 285.271L303.425 287.921C292.623 293.235 287.766 309.896 286.687 317.563C282.001 327.316 288.069 328.447 291.689 327.793C318.351 323.476 334.545 297.646 339.309 285.271Z" fill="#083F73"/>
<path d="M179.79 130.02C186.236 130.222 189.262 137.501 187.073 143.566C183.992 152.102 173.779 156 164.689 156C152.711 156 143 150.444 143 143.59C143 136.735 145.481 131.179 157.46 131.179C164.41 131.179 173.437 129.821 179.79 130.02Z" fill="#598EBC"/>
<path d="M379.546 141.083C375.383 143.772 370.696 139.956 369.654 135.11C368.413 129.342 371.681 124.441 375.764 122.037C381.337 118.756 387.845 119.476 390.3 123.645C392.755 127.815 393.591 131.874 388.018 135.156C385.302 136.755 382.248 139.337 379.546 141.083Z" fill="#598EBC"/>
<path d="M553.107 343.914C562.642 353.141 552.279 368.728 545.335 380.034C542.504 384.642 539.688 388.912 536.899 392.45C530.559 400.492 517.241 402.694 514.135 392.936C513.707 391.592 513.39 390.174 513.154 388.74C511.914 381.194 511.135 373.366 512.507 365.842C515.077 351.754 526.96 342.915 537.748 341.277C542.715 340.523 549.497 340.421 553.107 343.914V343.914Z" fill="#598EBC"/>
<path d="M423.794 104.837C424.615 91.5239 443.663 90.0817 456.926 88.6682C462.386 88.0864 467.555 87.7135 472.102 87.7962C482.01 87.9763 491.792 96.7494 486.488 105.12C485.724 106.325 484.82 107.487 483.841 108.592C478.655 114.447 472.842 120.059 465.868 123.601C453.294 129.989 439.031 125.825 431.131 118.191C427.646 114.823 423.495 109.674 423.794 104.837V104.837Z" fill="#598EBC"/>
<path d="M623.341 241.097C623.499 241.405 623.658 241.694 623.816 241.965C628.708 250.328 634.208 234.492 638.587 225.849C642.153 218.81 647.052 213.049 651.009 209.294C653.26 207.158 655.532 204.284 654.267 201.451C653.555 199.855 652.08 198.531 649.293 198.373C643.702 198.058 635.257 206.381 631.732 210.582C627.091 217.169 618.914 232.494 623.341 241.097Z" fill="#598EBC" stroke="#598EBC"/>
<path d="M560.62 434.685C553.105 458.592 542.122 479 529.405 479C519.189 479 519 460.924 519 446.347C519 439.103 524.331 422.626 530.852 411.775C536.281 402.743 548.87 397.911 557.214 404.348C564.499 409.968 566.362 421.943 560.62 434.685Z" fill="#598EBC"/>
<mask id="mask1_192_1298" style="mask-type:alpha" maskUnits="userSpaceOnUse" x="56" y="137" width="180" height="93">
<path d="M56.9564 191.884C57.8376 163.837 95.048 161.898 117.42 165.384L141.615 170.965C176.901 177.065 203.64 156.3 218.019 143.238C237.688 129.054 237.693 146.171 229.231 165.875C215.898 196.924 173.175 216.483 153.386 223.261C121.094 232.271 97.2652 230.227 81.6975 225.173C67.314 220.505 56.4815 206.999 56.9564 191.884Z" fill="#119EC7" stroke="#09AAD5"/>
</mask>
<g mask="url(#mask1_192_1298)">
<path d="M185.039 249.545C167.834 259.31 164.115 242.274 163.533 234.137C158.884 205.309 136.216 201.008 125.173 198.683C132.148 201.589 139.987 208.409 135.635 230.365C129.241 262.617 142.609 266.46 140.285 266.46C138.847 266.46 135.854 275.77 136.664 286.174C137.688 299.335 146.609 311.461 147.601 324.625C147.927 328.951 147.13 332.921 143.772 337.013C160.088 323.96 164.953 307.296 167.61 291.913C169.732 279.622 173.252 266.449 185.039 270.529C200.15 275.76 268.734 295.272 335.575 291.453C355.918 290.29 406.833 284.594 440.776 266.46C464.612 253.726 472.742 236.969 474.463 225.77C475.534 218.806 472.282 211.784 466.064 208.469C457.7 204.009 442.436 198.619 419.271 194.329C381.608 187.355 307.676 195.551 283.265 204.269C249.089 216.475 209.837 235.402 185.039 249.545Z" fill="#083F73"/>
</g>
<mask id="mask2_192_1298" style="mask-type:alpha" maskUnits="userSpaceOnUse" x="1" y="27" width="735" height="543">
<path d="M613.806 46.2789C628.188 34.0882 661.564 29.7381 689.231 28.7204C708.851 27.9988 739.125 27.1059 734.898 46.2789C733.838 56.9604 720.764 84.0007 709.864 104.695C704.097 115.644 694.915 124.818 689.15 135.769C686.488 140.825 684.564 145.901 683.578 149.155C680.888 156.386 676.89 163.032 672.602 168.75C662.188 182.635 643.533 187.409 631.184 199.605C627.062 203.675 623.622 208.434 620.786 213.433C609.208 233.842 617.874 269.271 595.353 275.861C587.511 277.256 585.166 289.617 584.974 295.623C587.742 318.872 551.145 330.109 532.501 332.821C510.358 335.611 502.516 368.469 501.363 384.55C499.979 414.308 459.653 445.384 439.663 457.202C419.827 468.362 406.795 505.25 402.759 522.299C395.839 549.733 375.273 564.728 365.854 568.797H2V427.5V281.092C41.6722 242.499 63.6995 234.796 133.472 240.407C173.605 242.267 217.852 205.921 234.959 187.516C273.599 142.483 325.291 156.417 354.568 173.571C361.158 177.432 369.768 176.634 374.787 170.876C379.954 164.949 383.864 157.882 389.511 152.409C405.957 136.471 439.393 131.883 456.385 131.718C467.462 130.215 477.49 126.671 485.719 122.701C500.152 115.736 509.408 102.02 519.742 89.7711C542.464 62.8387 568.454 56.2608 580.361 56.7409C593.278 57.2058 608.039 49.9599 613.806 46.2789Z" fill="#179DC1" stroke="#09AAD5"/>
</mask>
<g mask="url(#mask2_192_1298)">
<path d="M188.252 250.204C171.184 259.968 167.494 242.933 166.917 234.796C162.304 205.967 139.815 201.666 128.859 199.341C135.779 202.247 143.557 209.068 139.239 231.024C132.896 263.275 146.158 267.119 143.852 267.119C142.422 267.119 139.441 276.477 140.266 286.914C141.301 300.008 150.073 312.089 151.103 325.183C151.446 329.548 150.668 333.548 147.312 337.672C163.534 324.59 168.347 307.881 170.978 292.47C173.066 280.244 176.542 267.101 188.252 271.187C203.245 276.418 271.287 295.931 337.6 292.111C357.782 290.949 408.295 285.253 441.97 267.119C465.669 254.356 473.718 237.554 475.402 226.355C476.443 219.437 473.244 212.455 467.083 209.14C458.79 204.677 443.639 199.282 420.635 194.988C383.269 188.013 309.922 196.21 285.703 204.928C251.797 217.134 212.855 236.061 188.252 250.204Z" fill="#598EBC"/>
</g>
<mask id="mask3_192_1298" style="mask-type:alpha" maskUnits="userSpaceOnUse" x="59" y="137" width="180" height="93">
<path d="M60.4447 191.884C61.3259 163.837 98.5362 161.898 120.909 165.384L145.103 170.965C180.389 177.065 207.129 156.3 221.507 143.238C241.177 129.054 241.181 146.171 232.72 165.875C219.386 196.924 176.663 216.483 156.874 223.261C124.582 232.271 100.753 230.227 85.1857 225.173C70.8023 220.505 59.9698 206.999 60.4447 191.884Z" fill="#119EC7" stroke="#09AAD5"/>
</mask>
<g mask="url(#mask3_192_1298)">
<g style="mix-blend-mode:multiply" opacity="0.51">
<path d="M132.751 234.043C99.7227 246.53 97.8376 215.478 99.046 200.975C98.7578 148.88 59.9534 135.072 41.1117 127.94C52.6171 134.978 64.5737 149.155 50.8691 186.662C30.7377 241.758 53.2637 252.205 49.1626 251.566C45.925 251.062 34.0482 276.615 37.9 301.145C39.9486 314.192 44.6579 327.101 45.6795 340.268C46.8277 355.066 47.44 366.631 35.9464 376.892C71.8191 356.356 84.0947 324.135 93.1424 295.432L93.2469 295.1C98.1301 279.606 104.175 260.425 118.944 267.055C121.3 268.112 123.968 269.429 126.991 271.032C152.211 284.404 267.835 337.64 386.788 349.268C422.992 352.807 514.368 356.753 579.221 334.112C631.632 315.814 648.811 282.41 651.751 263.536C652.836 256.57 651.252 249.061 646.155 244.19C635.323 233.838 608.268 217.611 561.087 201.056C496.565 178.415 363.902 172.554 318.448 181.216C254.812 193.344 180.378 215.925 132.751 234.043Z" fill="#598EBC"/>
</g>
</g>
<g style="mix-blend-mode:multiply" opacity="0.46">
<path d="M342.544 442.34C403.342 439.257 443.923 382.236 457.653 355.69L417.548 355.69L382.094 353.365C356.582 362.601 338.177 401.278 333.867 418.187C320.958 438.879 334.273 442.911 342.544 442.34Z" fill="#083F73"/>
</g>
<g style="mix-blend-mode:multiply" opacity="0.46">
<path d="M439.053 184.811L401.786 182.964C395.997 176.411 384.651 161.213 385.581 152.843C389.456 148.194 402.436 138.08 423.36 134.825L443.604 131.919C461.722 151.858 473.39 174.392 478.859 188.649L439.053 184.811Z" fill="#598EBC"/>
</g>
<path opacity="0.62" d="M528.337 320.11C507.254 329.414 490.661 347.247 485 355C497.884 300.339 540.049 303.247 551.762 274.172C559.665 254.555 588.49 229.784 602.126 223C604.469 227.652 602.712 260.797 589.243 269.52C583.32 273.355 579.663 278.651 577.423 283.679C573.576 292.313 569.842 301.48 561.323 305.575C552.658 309.74 540.952 314.543 528.337 320.11Z" fill="#598EBC"/>
<path d="M491.5 163.874C491.5 158.442 493.709 153.244 497.62 149.474L539.261 109.339C552.754 96.334 568.316 85.6635 585.311 77.7646L600.908 70.5151L624.157 62.3781L646.243 55.9846L664.842 53.0785L686.309 49.776C687.108 49.653 687.916 49.5912 688.726 49.5912L693.117 49.5912C701.988 49.5912 708.173 58.3908 705.168 66.7372V66.7372L698.996 83.8833L691.44 101.32L679.816 123.406L671.678 136.193L655.985 155.373V155.373C640.641 173.02 621.928 187.426 600.943 197.746L549.689 222.954C540.988 227.233 530.471 224.655 524.736 216.836L495.373 176.803C492.857 173.372 491.5 169.228 491.5 164.974L491.5 163.874Z" fill="#B18B60"/>
<path d="M505.33 160.986C505.343 155.858 507.414 150.95 511.08 147.363L544.366 114.797C557.771 101.682 573.265 90.8901 590.213 82.8628L600.46 78.0096L620.65 70.7947L639.827 65.1177L655.971 62.519L674.591 59.5673C675.294 59.4559 676.004 59.3991 676.716 59.3974L680.279 59.3886C688.09 59.3695 693.557 67.104 690.932 74.4617V74.4617L685.54 89.5739L678.947 104.945L668.814 124.419L661.727 135.697L648.07 152.621V152.621C634.718 168.194 618.394 180.947 600.054 190.136L557.848 211.281C549.076 215.676 538.411 213.058 532.67 205.102L508.946 172.222C506.586 168.952 505.32 165.019 505.33 160.986V160.986Z" fill="#6E3D20"/>
<path d="M684.909 82.5154L533.271 182.362L543.659 198.25L673.866 114.483L679.678 103.439L684.909 90.6525L684.909 82.5154Z" fill="#905727"/>
<path d="M683.166 62.7529L507.637 163.885L512.286 171.441L687.234 70.3088L683.166 62.7529Z" fill="#905727"/>
<path d="M666.543 62.9606L511.184 161.605L521.1 177.511L687.132 62.9606L666.543 62.9606Z" fill="#905727"/>
<mask id="mask4_192_1298" style="mask-type:alpha" maskUnits="userSpaceOnUse" x="658" y="30" width="47" height="74">
<path d="M691.884 103.438L658.755 56.9408L661.661 48.8037L680.26 70.3088L670.961 30.2046L704.09 94.1389L691.884 103.438Z" fill="#9C6633"/>
</mask>
<g mask="url(#mask4_192_1298)">
<path d="M505.33 160.985C505.343 155.857 507.414 150.949 511.08 147.362L544.366 114.796C557.771 101.681 573.265 90.889 590.213 82.8617L600.46 78.0085L620.65 70.7936L639.827 65.1166L655.971 62.5179L674.591 59.5662C675.294 59.4548 676.004 59.398 676.716 59.3963L680.279 59.3875C688.09 59.3684 693.557 67.1029 690.932 74.4606V74.4606L685.54 89.5728L678.947 104.944L668.814 124.418L661.727 135.696L648.07 152.62V152.62C634.718 168.192 618.394 180.946 600.054 190.134L557.848 211.28C549.076 215.674 538.411 213.057 532.67 205.101L508.946 172.221C506.586 168.95 505.32 165.018 505.33 160.985V160.985Z" fill="#A46B37"/>
</g>
<mask id="mask5_192_1298" style="mask-type:alpha" maskUnits="userSpaceOnUse" x="505" y="59" width="187" height="155">
<path d="M505.33 160.986C505.343 155.858 507.414 150.95 511.08 147.363L544.366 114.797C557.771 101.682 573.265 90.8901 590.213 82.8628L600.46 78.0096L620.65 70.7947L639.827 65.1177L655.971 62.519L674.591 59.5673C675.294 59.4559 676.004 59.3991 676.716 59.3974L680.279 59.3886C688.09 59.3695 693.557 67.104 690.932 74.4617V74.4617L685.54 89.5739L678.947 104.945L668.814 124.419L661.727 135.697L648.07 152.621V152.621C634.718 168.194 618.394 180.947 600.054 190.136L557.848 211.281C549.076 215.676 538.411 213.058 532.67 205.102L508.946 172.222C506.586 168.952 505.32 165.019 505.33 160.986V160.986Z" fill="#6E3D20"/>
</mask>
<g mask="url(#mask5_192_1298)">
<path d="M672.704 168.536L608.77 52.2919L619.232 46.4797L684.328 157.493L672.704 168.536Z" fill="#9B6031"/>
</g>
<path d="M563.719 161.194C564.121 157.496 569.053 155.148 571.469 154.436C575.783 152.396 577.699 156.282 577.511 158.015C577.36 159.402 571.98 162.286 569.309 163.555C567.278 164.309 563.317 164.892 563.719 161.194Z" fill="url(#paint0_linear_192_1298)"/>
<path d="M552.095 143.758C552.497 140.06 557.429 137.711 559.845 136.999C564.159 134.96 566.075 138.845 565.887 140.579C565.736 141.965 560.356 144.85 557.685 146.119C555.654 146.873 551.693 147.456 552.095 143.758Z" fill="url(#paint1_linear_192_1298)"/>
<mask id="mask6_192_1298" style="mask-type:alpha" maskUnits="userSpaceOnUse" x="505" y="59" width="187" height="155">
<path d="M505.33 160.986C505.343 155.858 507.414 150.95 511.08 147.363L544.366 114.797C557.771 101.682 573.265 90.8901 590.213 82.8628L600.46 78.0096L620.65 70.7947L639.827 65.1177L655.971 62.519L674.591 59.5673C675.294 59.4559 676.004 59.3991 676.716 59.3974L680.279 59.3886C688.09 59.3695 693.557 67.104 690.932 74.4617V74.4617L685.54 89.5739L678.947 104.945L668.814 124.419L661.727 135.697L648.07 152.621V152.621C634.718 168.194 618.394 180.947 600.054 190.136L557.848 211.281C549.076 215.676 538.411 213.058 532.67 205.102L508.946 172.222C506.586 168.952 505.32 165.019 505.33 160.986V160.986Z" fill="#6E3D20"/>
</mask>
<g mask="url(#mask6_192_1298)">
<path d="M622.719 224.915L535.536 89.4901L572.153 54.0356L665.148 198.178L622.719 224.915Z" fill="#AB733C"/>
</g>
<mask id="mask7_192_1298" style="mask-type:alpha" maskUnits="userSpaceOnUse" x="505" y="59" width="187" height="155">
<path d="M505.33 160.986C505.343 155.858 507.414 150.95 511.08 147.363L544.366 114.797C557.771 101.682 573.265 90.8901 590.213 82.8628L600.46 78.0096L620.65 70.7947L639.827 65.1177L655.971 62.519L674.591 59.5673C675.294 59.4559 676.004 59.3991 676.716 59.3974L680.279 59.3886C688.09 59.3695 693.557 67.104 690.932 74.4617V74.4617L685.54 89.5739L678.947 104.945L668.814 124.419L661.727 135.697L648.07 152.621V152.621C634.718 168.194 618.394 180.947 600.054 190.136L557.848 211.281C549.076 215.676 538.411 213.058 532.67 205.102L508.946 172.222C506.586 168.952 505.32 165.019 505.33 160.986V160.986Z" fill="#6E3D20"/>
</mask>
<g mask="url(#mask7_192_1298)">
<path d="M550.647 235.958L496.013 153.425V122.039L520.424 163.305L506.475 125.526L579.709 210.965L571.571 217.359L543.673 174.93L569.247 217.359L555.297 226.077L525.074 178.998L550.647 235.958Z" fill="#C48140"/>
</g>
<path d="M564.961 130.168L578.539 118.196L585.185 132.365C581.425 134.685 573.38 139.852 571.28 141.963C569.18 144.073 568.01 143.361 567.688 142.742L562.663 135.18C561.427 133.643 563.68 131.198 564.961 130.168Z" fill="url(#paint2_linear_192_1298)"/>
<path d="M583.929 160.084L601.078 152.034L590.583 139.559C586.773 142.212 578.429 147.802 575.533 148.937C572.636 150.072 572.803 151.508 573.248 152.085L578.211 160.174C579.128 162.027 582.405 160.886 583.929 160.084Z" fill="url(#paint3_linear_192_1298)"/>
<path d="M548.168 127.11C551.454 126.999 556.466 129.44 557.902 130.571L564.302 120.093C565.177 119.213 569.281 111.929 574.62 116.601L580.312 121.832L594.621 146.187L595.233 147.532C599.063 155.952 596.652 166.285 587.456 165.286L576.886 164.138C576.978 166.877 576.944 172.213 575.819 173.961C574.694 175.71 586.838 175.938 593.47 175.879C596.677 175.058 605.973 174.991 608.452 171.14C611.968 165.675 613.501 162.334 614.191 155.978C614.511 153.032 615.386 135.581 613.653 135.392L596.455 110.723C593.725 107.568 587.772 104.882 586.472 104.377C582.291 102.754 573.363 101.264 567.981 102.369C564.793 103.023 559.606 106.136 557.814 108.28C553.23 114.603 544.882 127.221 548.168 127.11Z" fill="#F24F7A"/>
<path d="M472.571 115.669L566.078 136.469C566.468 135.677 567.597 134.33 569 135.28V140.035C569 142.412 567.481 142.887 566.078 140.035L519.909 129.338L472.571 119.235L463.252 121.867C462.456 122.092 461.632 122.206 460.805 122.206H453.634C451.473 122.206 449.333 121.794 447.327 120.993L437.684 117.14C435.836 116.402 435.206 114.102 436.42 112.525L442.544 104.567C443.746 103.005 445.753 102.295 447.67 102.754L458.443 105.332C462.319 106.259 465.829 108.323 468.524 111.259L472.571 115.669Z" fill="#F2C027"/>
<path d="M556.14 257.073L575.745 154.356C576.623 154.25 578.309 153.596 578.024 151.82L573.714 150.077C571.558 149.205 570.502 150.576 572.512 153.048L563.219 203.922L552.907 255.766L546.544 264.473C546.107 265.071 545.745 265.721 545.467 266.408L542.179 274.537C541.45 276.339 541.036 278.252 540.954 280.194L540.458 291.921C540.369 294.028 542.425 295.566 544.421 294.887L554.191 291.566C555.919 290.978 557.19 289.496 557.506 287.698L559.858 274.335C560.51 270.629 560.104 266.814 558.685 263.329L556.14 257.073Z" fill="#F2C027"/>
<circle cx="597.272" cy="130.105" r="20.924" transform="rotate(6.19931 597.272 130.105)" fill="#F2C027"/>
<circle opacity="0.48" cx="597.787" cy="130.746" r="16.8554" transform="rotate(6.19931 597.787 130.746)" fill="url(#paint4_linear_192_1298)" fill-opacity="0.58"/>
<circle cx="597.788" cy="130.746" r="14.5305" transform="rotate(6.19931 597.788 130.746)" fill="#F2C027"/>
<g style="mix-blend-mode:luminosity" opacity="0.31">
<path d="M609.972 126.223C608.676 120.937 601.887 118.134 598.654 117.393C593.454 116.828 595.388 120.546 599.433 120.985C602.669 121.337 606.267 124.456 607.661 125.972C608.972 128.258 611.269 131.508 609.972 126.223Z" fill="#F24F7A"/>
</g>
<path d="M555.807 129.694C555.083 127.744 549.702 126.692 548.484 127.144C547.014 129.908 545.094 136.014 547.667 138.164C550.239 140.314 551.519 138.582 551.837 137.448C552.54 136.355 552.478 136.932 553.759 135.902C554.784 135.078 555.64 131.235 555.807 129.694Z" fill="#E2A48D"/>
<path d="M577.153 165.044C578.638 166.499 577.408 171.843 576.499 172.771C573.376 172.988 567.018 172.255 566.102 169.03C565.186 165.804 567.288 165.341 568.454 165.513C569.739 165.315 569.186 165.137 570.648 164.387C571.818 163.786 575.677 164.57 577.153 165.044Z" fill="#E2A48D"/>
<path d="M519.718 131.92L527.273 124.946L529.598 127.852L522.042 134.245L519.718 131.92Z" fill="#784F14"/>
<path d="M560.301 211.87L568.438 207.802L570.182 211.288L562.044 214.777L560.301 211.87Z" fill="#784F14"/>
</g>
<defs>
<linearGradient id="paint0_linear_192_1298" x1="571.795" y1="156.81" x2="564.749" y2="162.475" gradientUnits="userSpaceOnUse">
<stop stop-color="#23231E"/>
<stop offset="1" stop-color="#23231E" stop-opacity="0.01"/>
</linearGradient>
<linearGradient id="paint1_linear_192_1298" x1="560.171" y1="139.373" x2="553.125" y2="145.039" gradientUnits="userSpaceOnUse">
<stop stop-color="#23231E"/>
<stop offset="1" stop-color="#23231E" stop-opacity="0.01"/>
</linearGradient>
<linearGradient id="paint2_linear_192_1298" x1="574.206" y1="131.172" x2="563.567" y2="137.617" gradientUnits="userSpaceOnUse">
<stop stop-color="#075387"/>
<stop offset="1" stop-color="#0588DE" stop-opacity="0.42"/>
</linearGradient>
<linearGradient id="paint3_linear_192_1298" x1="586.971" y1="150.701" x2="576.128" y2="157.999" gradientUnits="userSpaceOnUse">
<stop stop-color="#075387"/>
<stop offset="1" stop-color="#0588DE" stop-opacity="0.42"/>
</linearGradient>
<linearGradient id="paint4_linear_192_1298" x1="605.343" y1="113.89" x2="587.325" y2="141.208" gradientUnits="userSpaceOnUse">
<stop stop-color="#D9D9D9" stop-opacity="0"/>
<stop offset="0.651042" stop-color="#CA8725"/>
</linearGradient>
<clipPath id="clip0_192_1298">
<rect width="875" height="570" rx="32" fill="white"/>
</clipPath>
</defs>
</svg>
