<svg width="366" height="278" viewBox="0 0 366 278" fill="none" xmlns="http://www.w3.org/2000/svg">
<g filter="url(#filter0_d_236_2661)">
<ellipse cx="82.7048" cy="198.333" rx="32.7887" ry="37.3334" fill="#F2C027"/>
<ellipse cx="42.7887" cy="229" rx="32.7887" ry="30.6667" fill="#F2C027"/>
<ellipse cx="134.025" cy="210.333" rx="32.7887" ry="30.6667" fill="#F2C027"/>
<ellipse cx="138.305" cy="238.333" rx="45.6191" ry="26.6667" fill="#F2C027"/>
<path d="M10 225H178.221V233C178.221 250.673 163.894 265 146.221 265H42C24.3269 265 10 250.673 10 233V225Z" fill="#F2C027"/>
</g>
<g filter="url(#filter1_d_236_2661)">
<ellipse cx="272.271" cy="41.554" rx="25.8279" ry="30.554" fill="#F2C027"/>
<ellipse cx="240.828" cy="66.6521" rx="25.8279" ry="25.0979" fill="#F2C027"/>
<ellipse cx="312.697" cy="51.3748" rx="25.8279" ry="25.0979" fill="#F2C027"/>
<ellipse cx="316.065" cy="74.2904" rx="35.9344" ry="21.8243" fill="#F2C027"/>
<path d="M215 63.3782H347.508V64.1146C347.508 81.7877 333.181 96.1146 315.508 96.1146H247C229.327 96.1146 215 81.7877 215 64.1146V63.3782Z" fill="#F2C027"/>
</g>
<g opacity="0.5" filter="url(#filter2_d_236_2661)">
<path d="M131.727 69.5547C131.727 101.664 105.694 127.697 73.554 127.697C41.4138 127.697 15.3809 101.664 15.3809 69.5547C15.3809 63.2315 16.3987 57.1551 18.2494 51.4797C25.8681 28.2227 47.737 11.4124 73.554 11.4124C105.663 11.4124 131.727 37.4453 131.727 69.5547Z" fill="#0228B9"/>
<path d="M9.70508 41.0543L18.8351 26.218L31.4814 29.4259L18.2799 51.4799" fill="#0228B9"/>
<path d="M46.875 17.8899V5.05853L64.4565 0L71.5816 11.4434L46.875 17.8899Z" fill="#0228B9"/>
<path d="M90.5215 13.9109L100.947 4.56494L116.061 13.9109L112.36 26.2179L90.5215 13.9109Z" fill="#0228B9"/>
<path d="M125.312 42.9355H137.866L141.999 60.4245L131.667 66.4084L125.312 42.9355Z" fill="#0228B9"/>
<path d="M128.304 87.6914L137.434 96.914L128.304 111.596L116.059 109.252L128.304 87.6914Z" fill="#0228B9"/>
<path d="M15.4125 69.5549L4 78.6541L7.42376 94.6317L22.0442 96.5441L15.4125 69.5549Z" fill="#0228B9"/>
<path d="M33.3942 111.596L30.248 123.132L45.0535 133.372L55.1706 124.705L33.3942 111.596Z" fill="#0228B9"/>
<path d="M73.5879 127.697L80.4046 137.938L98.788 133.373V121.96L73.5879 127.697Z" fill="#0228B9"/>
<path d="M72.5 86.2175C81.0604 86.2175 88 79.2779 88 70.7175C88 62.1571 81.0604 55.2175 72.5 55.2175C63.9396 55.2175 57 62.1571 57 70.7175C57 79.2779 63.9396 86.2175 72.5 86.2175Z" stroke="#F2F2F7" stroke-width="2" stroke-miterlimit="10"/>
<path d="M73 103.218C91.2254 103.218 106 88.4429 106 70.2175C106 51.9921 91.2254 37.2175 73 37.2175C54.7746 37.2175 40 51.9921 40 70.2175C40 88.4429 54.7746 103.218 73 103.218Z" stroke="#F2F2F7" stroke-width="2" stroke-miterlimit="10"/>
</g>
<g opacity="0.5" filter="url(#filter3_d_236_2661)">
<path d="M267.588 208.954C267.588 235.247 246.271 256.564 219.953 256.564C193.635 256.564 172.318 235.247 172.318 208.954C172.318 203.777 173.152 198.801 174.667 194.154C180.906 175.11 198.813 161.345 219.953 161.345C246.246 161.345 267.588 182.662 267.588 208.954Z" fill="#0228B9"/>
<path d="M167.672 185.617L175.148 173.469L185.503 176.095L174.693 194.154" fill="#0228B9"/>
<path d="M198.107 166.649V156.142L212.504 152L218.338 161.37L198.107 166.649Z" fill="#0228B9"/>
<path d="M233.848 163.391L242.385 155.738L254.76 163.391L251.73 173.468L233.848 163.391Z" fill="#0228B9"/>
<path d="M262.336 187.157H272.616L276 201.478L267.539 206.378L262.336 187.157Z" fill="#0228B9"/>
<path d="M264.785 223.806L272.261 231.358L264.785 243.38L254.758 241.46L264.785 223.806Z" fill="#0228B9"/>
<path d="M172.345 208.955L163 216.405L165.804 229.489L177.775 231.054L172.345 208.955Z" fill="#0228B9"/>
<path d="M187.068 243.38L184.492 252.826L196.616 261.211L204.9 254.114L187.068 243.38Z" fill="#0228B9"/>
<path d="M219.982 256.564L225.564 264.95L240.617 261.212V251.866L219.982 256.564Z" fill="#0228B9"/>
<path d="M219.091 222.599C226.1 222.599 231.783 216.916 231.783 209.907C231.783 202.897 226.1 197.215 219.091 197.215C212.081 197.215 206.398 202.897 206.398 209.907C206.398 216.916 212.081 222.599 219.091 222.599Z" stroke="#F2F2F7" stroke-width="2" stroke-miterlimit="10"/>
<path d="M219.5 236.519C234.424 236.519 246.522 224.421 246.522 209.497C246.522 194.573 234.424 182.475 219.5 182.475C204.577 182.475 192.479 194.573 192.479 209.497C192.479 224.421 204.577 236.519 219.5 236.519Z" stroke="#F2F2F7" stroke-width="2" stroke-miterlimit="10"/>
</g>
<g opacity="0.5" filter="url(#filter4_d_236_2661)">
<path d="M307.797 136.999C313.428 147.708 309.311 160.956 298.592 166.592C287.872 172.229 274.625 168.112 268.993 157.403C267.885 155.294 267.158 153.089 266.78 150.871C265.243 141.779 269.588 132.337 278.199 127.809C288.907 122.178 302.166 126.29 307.797 136.999Z" fill="#0228B9"/>
<path d="M262.102 148.893L262.545 142.344L267.325 141.196L266.79 150.866" fill="#0228B9"/>
<path d="M270.436 134.649L268.186 130.369L273.163 125.599L277.546 128.166L270.436 134.649Z" fill="#0228B9"/>
<path d="M284.297 125.667L286.135 120.721L292.815 121.188L293.739 125.942L284.297 125.667Z" fill="#0228B9"/>
<path d="M300.988 129.246L305.175 127.044L309.621 132.152L307.224 135.96L300.988 129.246Z" fill="#0228B9"/>
<path d="M309.836 143.648L314.498 145.123L314.028 151.621L309.533 152.987L309.836 143.648Z" fill="#0228B9"/>
<path d="M269.004 157.397L266.793 162.434L270.737 167.162L275.948 165.236L269.004 157.397Z" fill="#0228B9"/>
<path d="M282.374 168.266L283.347 172.665L290.081 173.484L291.935 168.819L282.374 168.266Z" fill="#0228B9"/>
<path d="M298.604 166.587L302.673 168.806L308.004 164.06L306.002 160.254L298.604 166.587Z" fill="#0228B9"/>
<path d="M290.965 152.943C293.82 151.442 294.918 147.91 293.417 145.055C291.915 142.2 288.384 141.103 285.529 142.604C282.674 144.105 281.576 147.637 283.078 150.492C284.579 153.347 288.11 154.444 290.965 152.943Z" stroke="#F2F2F7" stroke-width="2" stroke-miterlimit="10"/>
<path d="M294.114 158.525C300.192 155.329 302.529 147.81 299.333 141.732C296.136 135.653 288.618 133.317 282.539 136.513C276.461 139.709 274.124 147.228 277.321 153.306C280.517 159.385 288.035 161.721 294.114 158.525Z" stroke="#F2F2F7" stroke-width="2" stroke-miterlimit="10"/>
</g>
<g opacity="0.5" filter="url(#filter5_d_236_2661)">
<path d="M346.198 220.862C353.237 234.249 348.091 250.81 334.691 257.856C321.291 264.902 304.731 259.755 297.692 246.368C296.305 243.732 295.398 240.976 294.925 238.204C293.003 226.838 298.435 215.035 309.198 209.375C322.585 202.336 339.159 207.476 346.198 220.862Z" fill="#0228B9"/>
<path d="M289.075 235.731L289.629 227.544L295.604 226.109L294.935 238.197" fill="#0228B9"/>
<path d="M299.49 217.925L296.677 212.575L302.898 206.612L308.378 209.821L299.49 217.925Z" fill="#0228B9"/>
<path d="M316.822 206.696L319.12 200.514L327.47 201.097L328.625 207.04L316.822 206.696Z" fill="#0228B9"/>
<path d="M337.684 211.171L342.917 208.419L348.475 214.804L345.478 219.564L337.684 211.171Z" fill="#0228B9"/>
<path d="M348.748 229.174L354.576 231.018L353.988 239.141L348.369 240.848L348.748 229.174Z" fill="#0228B9"/>
<path d="M297.701 246.362L294.938 252.657L299.868 258.568L306.383 256.16L297.701 246.362Z" fill="#0228B9"/>
<path d="M314.413 259.947L315.631 265.446L324.048 266.47L326.366 260.639L314.413 259.947Z" fill="#0228B9"/>
<path d="M334.703 257.849L339.79 260.624L346.453 254.69L343.952 249.932L334.703 257.849Z" fill="#0228B9"/>
<path d="M325.155 240.793C328.724 238.917 330.095 234.502 328.219 230.933C326.342 227.364 321.928 225.992 318.359 227.869C314.79 229.746 313.418 234.16 315.294 237.729C317.171 241.298 321.586 242.67 325.155 240.793Z" stroke="#F2F2F7" stroke-width="2" stroke-miterlimit="10"/>
<path d="M329.09 247.771C336.689 243.776 339.609 234.377 335.614 226.779C331.618 219.18 322.22 216.26 314.621 220.255C307.023 224.251 304.102 233.649 308.098 241.248C312.093 248.846 321.492 251.767 329.09 247.771Z" stroke="#F2F2F7" stroke-width="2" stroke-miterlimit="10"/>
</g>
<path d="M158.529 210.509C156.329 212.009 154.909 214.019 158.299 215.919C158.689 216.139 158.729 216.679 158.369 216.949C156.819 218.109 154.029 220.789 158.159 222.749C158.579 222.949 158.619 223.529 158.239 223.799C156.659 224.919 154.129 227.369 158.199 229.519C158.609 229.739 158.649 230.299 158.269 230.569C156.489 231.839 153.549 234.979 162.559 237.919C162.829 238.009 163.009 238.269 162.979 238.559C162.739 241.209 162.639 253.849 182.509 254.439C182.519 254.439 182.529 254.439 182.549 254.439C183.199 254.409 201.149 253.559 201.019 237.499C201.019 236.329 201.679 235.259 202.749 234.789C205.949 233.369 209.849 232.969 206.589 226.749C206.369 226.329 206.219 225.909 206.629 225.689C208.399 224.769 211.349 222.579 206.639 219.899C206.229 219.669 206.209 219.069 206.629 218.839C208.239 217.919 210.779 215.899 206.859 213.809C206.489 213.609 206.419 213.109 206.719 212.819C208.149 211.479 210.359 208.269 198.859 208.099C187.359 207.929 172.949 208.019 166.559 208.069C163.699 208.089 160.879 208.899 158.519 210.509H158.529Z" fill="#0228B9"/>
<path d="M161.035 215.426C161.035 215.426 159.652 214.967 160.083 216.64C160.754 219.276 189.819 221.171 203.675 213.975C204.166 213.723 204.858 213.486 204.968 212.79C205.058 212.198 205.038 211.576 203.806 212.39C201.181 214.138 182.255 221.467 161.035 215.426Z" fill="#598EBC"/>
<path d="M161.992 222.99C161.992 222.99 160.677 222.612 161.075 224.023C161.713 226.253 189.481 227.828 202.732 221.68C203.201 221.466 203.868 221.264 203.968 220.672C204.057 220.168 204.038 219.639 202.852 220.332C200.341 221.819 182.257 228.08 161.982 222.978" fill="#598EBC"/>
<path d="M163.898 229.988C163.898 229.988 162.698 229.607 163.072 231.023C163.652 233.257 188.834 234.823 200.85 228.681C201.273 228.463 201.883 228.272 201.971 227.673C202.05 227.169 202.04 226.638 200.958 227.333C198.677 228.817 182.276 235.082 163.898 229.988Z" fill="#598EBC"/>
<path d="M165.805 237.885C165.805 237.885 164.727 237.619 165.066 238.585C165.595 240.118 188.196 241.301 198.967 237.148C199.347 237.003 199.886 236.87 199.976 236.46C200.046 236.122 200.026 235.748 199.067 236.23C197.021 237.245 182.326 241.458 165.815 237.885" fill="#598EBC"/>
<g filter="url(#filter6_d_236_2661)">
<path d="M110.281 223.059C111.574 223.059 112.621 222.012 112.621 220.719C112.621 219.427 111.574 218.379 110.281 218.379C108.989 218.379 107.941 219.427 107.941 220.719C107.941 222.012 108.989 223.059 110.281 223.059Z" fill="#F2F2F7"/>
</g>
<g filter="url(#filter7_d_236_2661)">
<path d="M107.242 206.199C106.592 199.829 101.882 199.649 98.9122 200.199C96.9922 200.559 95.2222 201.589 94.1122 203.199C92.9922 204.829 92.8422 206.489 93.1222 207.939C93.6022 210.459 95.4122 212.519 97.7922 213.469L105.152 216.419C106.102 216.799 107.152 216.109 107.172 215.079L107.302 207.779C107.302 207.249 107.302 206.709 107.252 206.179L107.242 206.199ZM99.8522 207.209C98.5122 207.669 97.0522 206.969 96.5922 205.629C96.1322 204.289 96.8322 202.829 98.1722 202.369C99.5122 201.909 100.972 202.609 101.432 203.949C101.892 205.289 101.192 206.749 99.8522 207.209Z" fill="#F2F2F7"/>
</g>
<path d="M179.883 214.818C174.333 215.208 159.243 212.418 149.483 186.978C149.483 186.978 144.373 168.688 136.293 158.908C129.723 150.958 98.9927 108.758 120.573 69.0276C130.433 50.8676 148.603 38.7976 169.083 35.9376C182.313 34.0876 199.143 34.3776 214.823 42.3776C246.533 58.5476 273.203 108.238 228.453 157.998C225.163 161.658 222.273 165.648 219.803 169.898C216.743 175.168 213.193 182.058 212.033 187.418C209.913 197.148 197.853 215.438 183.833 214.778C182.753 214.728 180.973 214.748 179.883 214.828V214.818Z" fill="#F24F7A"/>
<path d="M158.842 112.548C158.842 112.548 159.272 108.718 161.392 112.118L174.162 194.628C174.162 194.628 173.422 196.328 172.942 194.628L158.842 112.538V112.548Z" fill="#D33961"/>
<path d="M195.542 111.948C195.542 111.948 196.942 108.358 198.122 112.198L189.082 195.198C189.082 195.198 187.932 196.648 187.902 194.878L195.542 111.938V111.948Z" fill="#D33961"/>
<path d="M123.299 216C123.299 216 245.599 143.436 250.563 82.9607C255.264 25.5973 197.032 39.836 187.961 57.9244C186.06 61.7214 184.132 65.492 181.913 69.1176L171.785 85.703L150.553 68.577C144.875 63.989 137.969 61.1017 130.68 60.5612C119.113 59.691 104.39 64.4241 99.6098 91.7544C91.3438 139.032 169.844 167.351 169.844 167.351C169.844 167.351 200.492 177.542 235.735 145.901C237.98 143.884 240.251 141.906 242.601 140.021C247.289 136.25 256.968 127.021 264.6 110.186C275.071 87.1005 296 50.805 296 50.805" stroke="#F2F2F7" stroke-width="3" stroke-linecap="round" stroke-linejoin="round" stroke-dasharray="8 8"/>
<g filter="url(#filter8_d_236_2661)">
<path d="M318.392 24.5726L306.112 32.7526C305.472 33.1826 304.643 33.2126 303.963 32.8226C302.593 32.0326 300.222 30.9026 299.062 31.7826C297.362 33.0626 298.213 34.7626 298.213 34.7626L301.422 37.6526C301.922 38.1026 301.852 38.9026 301.282 39.2626C300.092 39.9926 298.512 41.1726 299.062 41.9926C299.912 43.2726 301.092 41.9926 301.092 41.9926L303.743 39.8626L346.293 12.6426C346.293 12.6426 344.593 10.9426 340.763 13.0726C336.933 15.2026 330.972 18.1726 330.972 18.1726L313.422 12.5026C311.292 11.8126 309.783 14.5726 311.513 15.9926L318.543 21.7826C319.443 22.5226 319.373 23.9226 318.403 24.5626L318.392 24.5726Z" fill="#F2F2F7"/>
<path d="M323.433 32.6727L310.813 40.3127C310.153 40.7127 309.773 41.4527 309.843 42.2227C309.983 43.8027 309.993 46.4227 308.703 47.1027C306.823 48.1027 305.643 46.6127 305.643 46.6127L304.383 42.4827C304.183 41.8427 303.433 41.5627 302.863 41.9327C301.693 42.6927 299.963 43.6227 299.443 42.7827C298.653 41.4727 300.303 40.9427 300.303 40.9427L303.353 39.4527L346.073 12.4827C346.073 12.4827 346.893 14.7427 343.343 17.3127C339.793 19.8827 334.563 24.0027 334.563 24.0027L332.253 42.2927C331.973 44.5127 328.833 44.7127 328.283 42.5427L326.013 33.7227C325.723 32.5927 324.423 32.0627 323.433 32.6727Z" fill="#F2F2F7"/>
<path d="M299.953 43.1026C299.953 43.1026 298.453 43.0526 298.963 41.4626Z" fill="#F2F2F7"/>
<path d="M345.042 12.0725C345.042 12.0725 345.822 12.2125 346.252 12.6025C346.282 12.6225 346.292 12.6525 346.292 12.6925C346.312 13.0325 346.322 15.0225 344.072 16.7225" fill="#F2F2F7"/>
</g>
<path d="M156.409 102.55C156.409 112.96 147.969 121.4 137.549 121.4C127.129 121.4 118.689 112.96 118.689 102.55C118.689 100.5 119.019 98.53 119.619 96.69C122.089 89.15 129.179 83.7 137.549 83.7C147.959 83.7 156.409 92.14 156.409 102.55Z" fill="#0228B9"/>
<path d="M116.85 93.31L119.81 88.5L123.91 89.54L119.63 96.69" fill="#0228B9"/>
<path d="M128.9 85.8V81.64L134.6 80L136.91 83.71L128.9 85.8Z" fill="#0228B9"/>
<path d="M143.051 84.51L146.431 81.48L151.331 84.51L150.131 88.5L143.051 84.51Z" fill="#0228B9"/>
<path d="M154.33 93.9199H158.4L159.74 99.5899L156.39 101.53L154.33 93.9199Z" fill="#0228B9"/>
<path d="M155.3 108.43L158.26 111.42L155.3 116.18L151.33 115.42L155.3 108.43Z" fill="#0228B9"/>
<path d="M118.7 102.55L115 105.5L116.11 110.68L120.85 111.3L118.7 102.55Z" fill="#0228B9"/>
<path d="M124.53 116.18L123.51 119.92L128.31 123.24L131.59 120.43L124.53 116.18Z" fill="#0228B9"/>
<path d="M137.561 121.4L139.771 124.72L145.731 123.24V119.54L137.561 121.4Z" fill="#0228B9"/>
<path d="M137.189 107.91C139.945 107.91 142.179 105.676 142.179 102.92C142.179 100.164 139.945 97.9299 137.189 97.9299C134.433 97.9299 132.199 100.164 132.199 102.92C132.199 105.676 134.433 107.91 137.189 107.91Z" stroke="#F2F2F7" stroke-width="2" stroke-miterlimit="10"/>
<path d="M137.37 113.45C143.291 113.45 148.09 108.651 148.09 102.73C148.09 96.8095 143.291 92.01 137.37 92.01C131.45 92.01 126.65 96.8095 126.65 102.73C126.65 108.651 131.45 113.45 137.37 113.45Z" stroke="#F2F2F7" stroke-width="2" stroke-miterlimit="10"/>
<path d="M231.01 78.1601C231.01 84.7001 225.71 90.0001 219.17 90.0001C212.63 90.0001 207.33 84.7001 207.33 78.1601C207.33 76.8701 207.54 75.6401 207.91 74.4801C209.46 69.7401 213.92 66.3201 219.17 66.3201C225.71 66.3201 231.01 71.6201 231.01 78.1601Z" fill="#0228B9"/>
<path d="M206.16 72.3501L208.02 69.3401L210.6 69.9901L207.91 74.4701" fill="#0228B9"/>
<path d="M213.73 67.64V65.03L217.31 64L218.77 66.33L213.73 67.64Z" fill="#0228B9"/>
<path d="M222.619 66.8299L224.739 64.9299L227.819 66.8299L227.069 69.3399L222.619 66.8299Z" fill="#0228B9"/>
<path d="M229.699 72.74H232.259L233.099 76.3L230.999 77.52L229.699 72.74Z" fill="#0228B9"/>
<path d="M230.32 81.8501L232.18 83.7301L230.32 86.7201L227.82 86.2401L230.32 81.8501Z" fill="#0228B9"/>
<path d="M207.33 78.1599L205 80.0099L205.7 83.2599L208.68 83.6499L207.33 78.1599Z" fill="#0228B9"/>
<path d="M210.99 86.72L210.34 89.07L213.36 91.16L215.42 89.39L210.99 86.72Z" fill="#0228B9"/>
<path d="M219.17 90.0001L220.56 92.0801L224.31 91.1601V88.8301L219.17 90.0001Z" fill="#0228B9"/>
<path d="M218.941 81.52C220.669 81.52 222.071 80.1187 222.071 78.39C222.071 76.6614 220.669 75.26 218.941 75.26C217.212 75.26 215.811 76.6614 215.811 78.39C215.811 80.1187 217.212 81.52 218.941 81.52Z" stroke="#F2F2F7" stroke-width="2" stroke-miterlimit="10"/>
<path d="M219.051 85.01C222.773 85.01 225.791 81.9924 225.791 78.27C225.791 74.5476 222.773 71.53 219.051 71.53C215.328 71.53 212.311 74.5476 212.311 78.27C212.311 81.9924 215.328 85.01 219.051 85.01Z" stroke="#F2F2F7" stroke-width="2" stroke-miterlimit="10"/>
<defs>
<filter id="filter0_d_236_2661" x="6" y="161" width="181.924" height="112" filterUnits="userSpaceOnUse" color-interpolation-filters="sRGB">
<feFlood flood-opacity="0" result="BackgroundImageFix"/>
<feColorMatrix in="SourceAlpha" type="matrix" values="0 0 0 0 0 0 0 0 0 0 0 0 0 0 0 0 0 0 127 0" result="hardAlpha"/>
<feOffset dy="4"/>
<feGaussianBlur stdDeviation="2"/>
<feComposite in2="hardAlpha" operator="out"/>
<feColorMatrix type="matrix" values="0 0 0 0 0 0 0 0 0 0 0 0 0 0 0 0 0 0 0.25 0"/>
<feBlend mode="normal" in2="BackgroundImageFix" result="effect1_dropShadow_236_2661"/>
<feBlend mode="normal" in="SourceGraphic" in2="effect1_dropShadow_236_2661" result="shape"/>
</filter>
<filter id="filter1_d_236_2661" x="211" y="11" width="145" height="93.1147" filterUnits="userSpaceOnUse" color-interpolation-filters="sRGB">
<feFlood flood-opacity="0" result="BackgroundImageFix"/>
<feColorMatrix in="SourceAlpha" type="matrix" values="0 0 0 0 0 0 0 0 0 0 0 0 0 0 0 0 0 0 127 0" result="hardAlpha"/>
<feOffset dy="4"/>
<feGaussianBlur stdDeviation="2"/>
<feComposite in2="hardAlpha" operator="out"/>
<feColorMatrix type="matrix" values="0 0 0 0 0 0 0 0 0 0 0 0 0 0 0 0 0 0 0.25 0"/>
<feBlend mode="normal" in2="BackgroundImageFix" result="effect1_dropShadow_236_2661"/>
<feBlend mode="normal" in="SourceGraphic" in2="effect1_dropShadow_236_2661" result="shape"/>
</filter>
<filter id="filter2_d_236_2661" x="0" y="0" width="146" height="145.938" filterUnits="userSpaceOnUse" color-interpolation-filters="sRGB">
<feFlood flood-opacity="0" result="BackgroundImageFix"/>
<feColorMatrix in="SourceAlpha" type="matrix" values="0 0 0 0 0 0 0 0 0 0 0 0 0 0 0 0 0 0 127 0" result="hardAlpha"/>
<feOffset dy="4"/>
<feGaussianBlur stdDeviation="2"/>
<feComposite in2="hardAlpha" operator="out"/>
<feColorMatrix type="matrix" values="0 0 0 0 0 0 0 0 0 0 0 0 0 0 0 0 0 0 0.25 0"/>
<feBlend mode="normal" in2="BackgroundImageFix" result="effect1_dropShadow_236_2661"/>
<feBlend mode="normal" in="SourceGraphic" in2="effect1_dropShadow_236_2661" result="shape"/>
</filter>
<filter id="filter3_d_236_2661" x="159" y="152" width="121" height="120.949" filterUnits="userSpaceOnUse" color-interpolation-filters="sRGB">
<feFlood flood-opacity="0" result="BackgroundImageFix"/>
<feColorMatrix in="SourceAlpha" type="matrix" values="0 0 0 0 0 0 0 0 0 0 0 0 0 0 0 0 0 0 127 0" result="hardAlpha"/>
<feOffset dy="4"/>
<feGaussianBlur stdDeviation="2"/>
<feComposite in2="hardAlpha" operator="out"/>
<feColorMatrix type="matrix" values="0 0 0 0 0 0 0 0 0 0 0 0 0 0 0 0 0 0 0.25 0"/>
<feBlend mode="normal" in2="BackgroundImageFix" result="effect1_dropShadow_236_2661"/>
<feBlend mode="normal" in="SourceGraphic" in2="effect1_dropShadow_236_2661" result="shape"/>
</filter>
<filter id="filter4_d_236_2661" x="258.102" y="120.721" width="60.3965" height="60.7622" filterUnits="userSpaceOnUse" color-interpolation-filters="sRGB">
<feFlood flood-opacity="0" result="BackgroundImageFix"/>
<feColorMatrix in="SourceAlpha" type="matrix" values="0 0 0 0 0 0 0 0 0 0 0 0 0 0 0 0 0 0 127 0" result="hardAlpha"/>
<feOffset dy="4"/>
<feGaussianBlur stdDeviation="2"/>
<feComposite in2="hardAlpha" operator="out"/>
<feColorMatrix type="matrix" values="0 0 0 0 0 0 0 0 0 0 0 0 0 0 0 0 0 0 0.25 0"/>
<feBlend mode="normal" in2="BackgroundImageFix" result="effect1_dropShadow_236_2661"/>
<feBlend mode="normal" in="SourceGraphic" in2="effect1_dropShadow_236_2661" result="shape"/>
</filter>
<filter id="filter5_d_236_2661" x="285.074" y="200.514" width="73.502" height="73.9558" filterUnits="userSpaceOnUse" color-interpolation-filters="sRGB">
<feFlood flood-opacity="0" result="BackgroundImageFix"/>
<feColorMatrix in="SourceAlpha" type="matrix" values="0 0 0 0 0 0 0 0 0 0 0 0 0 0 0 0 0 0 127 0" result="hardAlpha"/>
<feOffset dy="4"/>
<feGaussianBlur stdDeviation="2"/>
<feComposite in2="hardAlpha" operator="out"/>
<feColorMatrix type="matrix" values="0 0 0 0 0 0 0 0 0 0 0 0 0 0 0 0 0 0 0.25 0"/>
<feBlend mode="normal" in2="BackgroundImageFix" result="effect1_dropShadow_236_2661"/>
<feBlend mode="normal" in="SourceGraphic" in2="effect1_dropShadow_236_2661" result="shape"/>
</filter>
<filter id="filter6_d_236_2661" x="103.941" y="218.379" width="12.6797" height="12.6799" filterUnits="userSpaceOnUse" color-interpolation-filters="sRGB">
<feFlood flood-opacity="0" result="BackgroundImageFix"/>
<feColorMatrix in="SourceAlpha" type="matrix" values="0 0 0 0 0 0 0 0 0 0 0 0 0 0 0 0 0 0 127 0" result="hardAlpha"/>
<feOffset dy="4"/>
<feGaussianBlur stdDeviation="2"/>
<feComposite in2="hardAlpha" operator="out"/>
<feColorMatrix type="matrix" values="0 0 0 0 0 0 0 0 0 0 0 0 0 0 0 0 0 0 0.25 0"/>
<feBlend mode="normal" in2="BackgroundImageFix" result="effect1_dropShadow_236_2661"/>
<feBlend mode="normal" in="SourceGraphic" in2="effect1_dropShadow_236_2661" result="shape"/>
</filter>
<filter id="filter7_d_236_2661" x="89" y="200" width="22.3027" height="24.5251" filterUnits="userSpaceOnUse" color-interpolation-filters="sRGB">
<feFlood flood-opacity="0" result="BackgroundImageFix"/>
<feColorMatrix in="SourceAlpha" type="matrix" values="0 0 0 0 0 0 0 0 0 0 0 0 0 0 0 0 0 0 127 0" result="hardAlpha"/>
<feOffset dy="4"/>
<feGaussianBlur stdDeviation="2"/>
<feComposite in2="hardAlpha" operator="out"/>
<feColorMatrix type="matrix" values="0 0 0 0 0 0 0 0 0 0 0 0 0 0 0 0 0 0 0.25 0"/>
<feBlend mode="normal" in2="BackgroundImageFix" result="effect1_dropShadow_236_2661"/>
<feBlend mode="normal" in="SourceGraphic" in2="effect1_dropShadow_236_2661" result="shape"/>
</filter>
<filter id="filter8_d_236_2661" x="294" y="12" width="56.2949" height="43.448" filterUnits="userSpaceOnUse" color-interpolation-filters="sRGB">
<feFlood flood-opacity="0" result="BackgroundImageFix"/>
<feColorMatrix in="SourceAlpha" type="matrix" values="0 0 0 0 0 0 0 0 0 0 0 0 0 0 0 0 0 0 127 0" result="hardAlpha"/>
<feOffset dy="4"/>
<feGaussianBlur stdDeviation="2"/>
<feComposite in2="hardAlpha" operator="out"/>
<feColorMatrix type="matrix" values="0 0 0 0 0 0 0 0 0 0 0 0 0 0 0 0 0 0 0.1 0"/>
<feBlend mode="normal" in2="BackgroundImageFix" result="effect1_dropShadow_236_2661"/>
<feBlend mode="normal" in="SourceGraphic" in2="effect1_dropShadow_236_2661" result="shape"/>
</filter>
</defs>
</svg>
